<mxfile host="app.diagrams.net" modified="2023-05-16T11:19:20.960Z" agent="Mozilla/5.0 (Windows NT 10.0; Win64; x64) AppleWebKit/537.36 (KHTML, like Gecko) Chrome/113.0.0.0 Safari/537.36" etag="tVqNmPPcfIqxsew5MV9q" version="21.3.2" type="github">
  <diagram name="Page-1" id="Lo27ysAtoNeHyq7eK_cv">
    <mxGraphModel dx="1036" dy="567" grid="1" gridSize="10" guides="1" tooltips="1" connect="1" arrows="1" fold="1" page="1" pageScale="1" pageWidth="850" pageHeight="1100" background="none" math="0" shadow="0">
      <root>
        <mxCell id="0" />
        <mxCell id="1" parent="0" />
      </root>
    </mxGraphModel>
  </diagram>
</mxfile>
